# File created by Blade
# Date/Time:  Mon Sep 22 17:46:01 2014
# Frame Rate: 120.000 fps
#------------------------------------------------------
:FULLY-SPECIFIED
:DEGREES
1983
root 6.087345 36.836325 6.250912 -5.830614 -3.936396 -4.009440
RightUpLeg 8.238400 -2.767318 -35.675978
RightLeg 70.256870 -0.000000 -0.000000
RightFoot 4.510436 -36.176076 11.134518
RightToeBase -5.547625 -0.000000 0.000000
LeftUpLeg 19.261852 -6.672503 -6.533168
LeftLeg -8.739987 -0.000000 0.000000
LeftFoot -9.263751 17.291990 -8.068503
LeftToeBase 3.672788 -0.000000 -0.000000
Spine 9.320604 -14.213239 -8.847027
RightShoulder -3.525850 -35.863241 -0.619873
RightArm 17.940096 -27.759085 63.010280
RightForeArm 5.897311 -0.000000 40.696809
RightHand -3.360695 -0.000000 -6.303969
RightHandThumb1 -24.326973 -0.000000 -32.862282
LeftShoulder -17.159675 34.777564 -1.076910
LeftArm 56.461291 -8.103536 -64.385568
LeftForeArm 24.772016 -0.000000 105.098830
LeftHand -24.305674 -0.000000 10.460295
LeftHandThumb1 -26.253704 0.000000 33.147579
Head 30.561394 -15.830674 15.086705
1984
root 6.077684 36.860269 6.259180 -5.649303 -3.692975 -4.282365
RightUpLeg 8.276000 -2.934396 -35.791853
RightLeg 70.440224 -0.000000 -0.000000
RightFoot 4.223516 -36.234320 11.460026
RightToeBase -5.557645 -0.000000 0.000000
LeftUpLeg 19.089811 -6.843231 -6.228100
LeftLeg -8.703099 -0.000000 0.000000
LeftFoot -9.220280 17.197772 -8.032096
LeftToeBase 3.642283 -0.000000 -0.000000
Spine 9.057764 -14.382190 -8.418182
RightShoulder -3.497272 -35.866345 -0.619451
RightArm 18.060907 -27.843051 62.865664
RightForeArm 5.864250 -0.000000 40.495490
RightHand -3.367241 -0.000000 -6.159741
RightHandThumb1 -24.326973 -0.000000 -32.862282
LeftShoulder -17.168404 34.781962 -1.069057
LeftArm 56.388792 -7.814191 -64.409956
LeftForeArm 24.860750 -0.000000 104.966398
LeftHand -24.291958 0.000000 10.571112
LeftHandThumb1 -26.253704 0.000000 33.147579
Head 30.721311 -16.076983 15.095500
1985
root 6.064460 36.883647 6.263412 -5.450108 -3.475890 -4.561575
RightUpLeg 8.244046 -3.106834 -35.854923
RightLeg 70.655162 -0.000000 -0.000000
RightFoot 3.287608 -36.223424 12.530299
RightToeBase -4.947219 -0.000000 0.000000
LeftUpLeg 18.876353 -6.970797 -5.901087
LeftLeg -8.641491 -0.000000 0.000000
LeftFoot -9.190919 17.112988 -7.957021
LeftToeBase 3.561797 -0.000000 -0.000000
Spine 8.774738 -14.567139 -7.988263
RightShoulder -3.443406 -35.804862 -0.633767
RightArm 18.075491 -27.864755 62.815379
RightForeArm 5.759463 -0.000000 40.358003
RightHand -3.406172 0.000000 -6.247945
RightHandThumb1 -24.326973 -0.000000 -32.862282
LeftShoulder -17.224388 34.886608 -1.132005
LeftArm 56.401780 -7.617964 -64.445858
LeftForeArm 24.935666 -0.000000 104.851968
LeftHand -24.273842 -0.000000 10.787373
LeftHandThumb1 -26.253704 0.000000 33.147579
Head 30.888054 -16.281205 15.104104
1986
root 6.050282 36.906070 6.267288 -5.281013 -3.275013 -4.811668
RightUpLeg 8.234777 -3.329704 -35.928261
RightLeg 70.795227 -0.000000 -0.000000
RightFoot 4.235113 -36.087395 11.311279
RightToeBase -5.454145 -0.000000 0.000000
LeftUpLeg 18.692201 -7.054811 -5.596591
LeftLeg -8.587326 -0.000000 0.000000
LeftFoot -9.143721 17.006291 -7.891385
LeftToeBase 3.538389 -0.000000 -0.000000
Spine 8.550724 -14.719333 -7.619480
RightShoulder -3.442663 -35.780216 -0.615742
RightArm 18.172541 -27.865890 62.736569
RightForeArm 5.599497 -0.000000 40.215367
RightHand -3.418699 -0.000000 -6.229562
RightHandThumb1 -24.326973 -0.000000 -32.862282
LeftShoulder -17.234700 34.915753 -1.111827
LeftArm 56.334446 -7.410689 -64.486634
LeftForeArm 25.016694 -0.000000 104.778870
LeftHand -24.374200 -0.000000 10.950143
LeftHandThumb1 -26.253704 0.000000 33.147579
Head 31.010875 -16.482439 15.110421
1987
root 6.032048 36.928116 6.270514 -5.140234 -3.082375 -5.083776
RightUpLeg 8.221337 -3.564283 -35.944940
RightLeg 70.931736 -0.000000 -0.000000
RightFoot 4.527832 -35.916445 10.873649
RightToeBase -5.779433 -0.000000 0.000000
LeftUpLeg 18.544856 -7.128559 -5.270613
LeftLeg -8.552163 -0.000000 0.000000
LeftFoot -9.119434 16.931773 -7.824037
LeftToeBase 3.554915 -0.000000 -0.000000
Spine 8.374984 -14.911097 -7.254311
RightShoulder -3.408759 -35.739753 -0.606508
RightArm 18.236551 -27.838890 62.655498
RightForeArm 5.608267 -0.000000 40.166204
RightHand -3.433727 -0.000000 -6.187143
RightHandThumb1 -24.326973 -0.000000 -32.862282
LeftShoulder -17.239305 34.924390 -1.102669
LeftArm 56.225989 -7.276274 -64.552715
LeftForeArm 25.215451 -0.000000 104.751163
LeftHand -24.443082 -0.000000 10.833408
LeftHandThumb1 -26.253704 0.000000 33.147579
Head 31.087885 -16.618853 15.164266
1988
root 6.012626 36.948947 6.273439 -5.042965 -2.900953 -5.318161
RightUpLeg 8.166145 -3.807432 -36.004618
RightLeg 71.136281 -0.000000 -0.000000
RightFoot 3.292362 -35.833817 12.326663
RightToeBase -5.259933 -0.000000 0.000000
LeftUpLeg 18.340401 -6.869644 -4.909901
LeftLeg -8.346407 -0.000000 0.000000
LeftFoot -9.139752 16.575328 -7.641247
LeftToeBase 3.442697 -0.000000 -0.000000
Spine 8.265879 -15.060000 -6.969679
RightShoulder -3.417688 -35.695756 -0.576258
RightArm 18.301970 -27.772767 62.646325
RightForeArm 5.542205 -0.000000 40.115044
RightHand -3.516362 0.000000 -6.333032
RightHandThumb1 -24.326973 -0.000000 -32.862282
LeftShoulder -17.253672 35.021585 -1.080524
LeftArm 56.234138 -7.185082 -64.603213
LeftForeArm 25.327822 -0.000000 104.704503
LeftHand -24.507203 0.000000 10.856292
LeftHandThumb1 -26.253704 0.000000 33.147579
Head 31.113367 -16.765968 15.274304
